# xmcd
#
# Track frame offsets:
#	150
#	17378
#	31277
#	49957
#	69229
#	84149
#	104296
#	120207
#	134706
#	142693
#	159084
#	178605
#
# Disc length: 2626 seconds
#
# Revision: 0
# Processed by: cddbd v1.5.2PL0 Copyright (c) Steve Scherf et al.
# Submitted via: EasyCDDAExtractor 9.1.0.1
#
DISCID=860a400c
DTITLE=Various Artist - DOGGY STYLE
DYEAR=2008
DGENRE=R&B
TTITLE0=MASTER TEMPO FEAT SUNNY BLACK - ΤΟ ΜΙΣΩ
TTITLE1=MASTER TEMPO - SEXY
TTITLE2=MASTER TEMPO FEAT ΔΑΝΤΗΣ - ΛΕΝΕ ΓΙΑ ΜΕΝΑ
TTITLE3=MASTER TEMPO FEAT SIFU VERSUS - ΕΤΣΙ ΕΙΜΑΙ ΕΓΩ
TTITLE4=MASTER TEMPO - ΚΟΡΙΤΣΙ ΜΟΥ ΛΥΠΑΜΑΙ
TTITLE5=MASTER TEMPO FEAT BO - ΛΕΣ
TTITLE6=MASTER TEMPO FEAT SUNNY BLACK - ΚΟΥΝΑ ΤΟ
TTITLE7=MASTER TEMPO FEAT ΓΟΝΙΔΗΣ - ΔΥΟΜΙΣΗ
TTITLE8=MASTER TEMPO - ΤΟ FLOW ΜΟΥ
TTITLE9=MASTER TEMPO FEAT PROFESSIONAL SINNERZ - ΦΕΡΤΕ ΜΟΥ ΛΕΦΤΑ
TTITLE10=MASTER TEMPO FEAT M.O.S. - ΔΕ ΜΠΟΡΕΙΣ ΝΑ ΜΕ ΦΤΑΣΕΙΣ
TTITLE11=MASTER TEMPO - DOGGY STYLE
EXTD=
EXTT0=
EXTT1=
EXTT2=
EXTT3=
EXTT4=
EXTT5=
EXTT6=
EXTT7=
EXTT8=
EXTT9=
EXTT10=
EXTT11=
PLAYORDER=
